<svg width="1200" height="760" viewBox="0 0 1200 760" fill="none" xmlns="http://www.w3.org/2000/svg">
  <rect width="1200" height="760" rx="36" fill="#0C0D0D"/>
  <rect x="60" y="56" width="1080" height="648" rx="28" fill="#141616" stroke="#2A2D2C"/>
  <rect x="96" y="96" width="1008" height="52" rx="16" fill="#1C1F1E"/>
  <rect x="228" y="108" width="540" height="28" rx="14" fill="#222625"/>
  <rect x="110" y="184" width="980" height="470" rx="24" fill="#F7F7F5"/>
  <rect x="150" y="224" width="360" height="26" rx="13" fill="#1C1F1E"/>
  <rect x="150" y="286" width="420" height="300" rx="22" fill="#F0F1EE" stroke="#D8DAD5"/>
  <rect x="182" y="322" width="160" height="18" rx="9" fill="#2D312F"/>
  <rect x="182" y="360" width="240" height="18" rx="9" fill="#2D312F"/>
  <rect x="182" y="406" width="344" height="48" rx="16" fill="#FFFFFF" stroke="#D8DAD5"/>
  <rect x="182" y="474" width="344" height="48" rx="16" fill="#FFFFFF" stroke="#D8DAD5"/>
  <rect x="620" y="286" width="430" height="300" rx="22" fill="#101211"/>
  <rect x="656" y="326" width="148" height="18" rx="9" fill="#E9ECEA"/>
  <rect x="656" y="370" width="356" height="14" rx="7" fill="#303533"/>
  <rect x="656" y="402" width="330" height="14" rx="7" fill="#303533"/>
  <rect x="656" y="434" width="284" height="14" rx="7" fill="#303533"/>
</svg>
