<svg width="1200" height="760" viewBox="0 0 1200 760" fill="none" xmlns="http://www.w3.org/2000/svg">
  <rect width="1200" height="760" rx="36" fill="#0C0D0D"/>
  <rect x="60" y="56" width="1080" height="648" rx="28" fill="#141616" stroke="#2A2D2C"/>
  <rect x="96" y="96" width="1008" height="52" rx="16" fill="#1C1F1E"/>
  <rect x="228" y="108" width="540" height="28" rx="14" fill="#222625"/>
  <rect x="110" y="184" width="980" height="470" rx="24" fill="#F7F7F5"/>
  <rect x="150" y="224" width="300" height="24" rx="12" fill="#1C1F1E"/>
  <rect x="150" y="286" width="900" height="250" rx="22" fill="#FFFFFF" stroke="#D8DAD5"/>
  <rect x="182" y="324" width="180" height="18" rx="9" fill="#2D312F"/>
  <rect x="182" y="368" width="834" height="14" rx="7" fill="#E3E5E1"/>
  <rect x="182" y="398" width="798" height="14" rx="7" fill="#E3E5E1"/>
  <rect x="182" y="428" width="762" height="14" rx="7" fill="#E3E5E1"/>
  <rect x="182" y="476" width="224" height="34" rx="17" fill="#111313"/>
  <rect x="150" y="566" width="900" height="44" rx="18" fill="#101211"/>
  <rect x="182" y="579" width="270" height="18" rx="9" fill="#E9ECEA"/>
</svg>
